<svg id="visual" viewBox="0 0 900 600" width="900" height="600" xmlns="http://www.w3.org/2000/svg" xmlns:xlink="http://www.w3.org/1999/xlink" version="1.1"><rect x="0" y="0" width="900" height="600" fill="#030303"></rect><defs><linearGradient id="grad1_0" x1="33.3%" y1="0%" x2="100%" y2="100%"><stop offset="20%" stop-color="#6ecb5a" stop-opacity="1"></stop><stop offset="80%" stop-color="#6ecb5a" stop-opacity="1"></stop></linearGradient></defs><defs><linearGradient id="grad1_1" x1="33.3%" y1="0%" x2="100%" y2="100%"><stop offset="20%" stop-color="#6ecb5a" stop-opacity="1"></stop><stop offset="80%" stop-color="#549545" stop-opacity="1"></stop></linearGradient></defs><defs><linearGradient id="grad1_2" x1="33.3%" y1="0%" x2="100%" y2="100%"><stop offset="20%" stop-color="#3a6230" stop-opacity="1"></stop><stop offset="80%" stop-color="#549545" stop-opacity="1"></stop></linearGradient></defs><defs><linearGradient id="grad1_3" x1="33.3%" y1="0%" x2="100%" y2="100%"><stop offset="20%" stop-color="#3a6230" stop-opacity="1"></stop><stop offset="80%" stop-color="#22331d" stop-opacity="1"></stop></linearGradient></defs><defs><linearGradient id="grad1_4" x1="33.3%" y1="0%" x2="100%" y2="100%"><stop offset="20%" stop-color="#030303" stop-opacity="1"></stop><stop offset="80%" stop-color="#22331d" stop-opacity="1"></stop></linearGradient></defs><defs><linearGradient id="grad2_0" x1="0%" y1="0%" x2="66.7%" y2="100%"><stop offset="20%" stop-color="#6ecb5a" stop-opacity="1"></stop><stop offset="80%" stop-color="#6ecb5a" stop-opacity="1"></stop></linearGradient></defs><defs><linearGradient id="grad2_1" x1="0%" y1="0%" x2="66.7%" y2="100%"><stop offset="20%" stop-color="#549545" stop-opacity="1"></stop><stop offset="80%" stop-color="#6ecb5a" stop-opacity="1"></stop></linearGradient></defs><defs><linearGradient id="grad2_2" x1="0%" y1="0%" x2="66.7%" y2="100%"><stop offset="20%" stop-color="#549545" stop-opacity="1"></stop><stop offset="80%" stop-color="#3a6230" stop-opacity="1"></stop></linearGradient></defs><defs><linearGradient id="grad2_3" x1="0%" y1="0%" x2="66.7%" y2="100%"><stop offset="20%" stop-color="#22331d" stop-opacity="1"></stop><stop offset="80%" stop-color="#3a6230" stop-opacity="1"></stop></linearGradient></defs><defs><linearGradient id="grad2_4" x1="0%" y1="0%" x2="66.7%" y2="100%"><stop offset="20%" stop-color="#22331d" stop-opacity="1"></stop><stop offset="80%" stop-color="#030303" stop-opacity="1"></stop></linearGradient></defs><g transform="translate(900, 0)"><path d="M0 486.7C-67.5 483.5 -135.1 480.3 -186.3 449.7C-237.4 419.1 -272.2 361.1 -314 314C-355.7 266.8 -404.3 230.4 -434.2 179.9C-464.2 129.3 -475.5 64.7 -486.7 0L0 0Z" fill="#161e13"></path><path d="M0 389.4C-54 386.8 -108.1 384.2 -149 359.8C-190 335.3 -217.8 288.9 -251.2 251.2C-284.5 213.4 -323.4 184.3 -347.4 143.9C-371.3 103.5 -380.4 51.7 -389.4 0L0 0Z" fill="#2e4a26"></path><path d="M0 292C-40.5 290.1 -81.1 288.2 -111.8 269.8C-142.5 251.5 -163.3 216.7 -188.4 188.4C-213.4 160.1 -242.6 138.2 -260.5 107.9C-278.5 77.6 -285.3 38.8 -292 0L0 0Z" fill="#477b3a"></path><path d="M0 194.7C-27 193.4 -54 192.1 -74.5 179.9C-95 167.6 -108.9 144.5 -125.6 125.6C-142.3 106.7 -161.7 92.2 -173.7 71.9C-185.7 51.7 -190.2 25.9 -194.7 0L0 0Z" fill="#61af4f"></path><path d="M0 97.3C-13.5 96.7 -27 96.1 -37.3 89.9C-47.5 83.8 -54.4 72.2 -62.8 62.8C-71.1 53.4 -80.9 46.1 -86.8 36C-92.8 25.9 -95.1 12.9 -97.3 0L0 0Z" fill="#6ecb5a"></path></g><g transform="translate(0, 600)"><path d="M0 -486.7C42.4 -427.1 84.8 -367.4 145.4 -351.1C206.1 -334.7 285 -361.7 340.8 -340.8C396.6 -319.9 429.2 -251.1 449.7 -186.3C470.2 -121.5 478.5 -60.7 486.7 0L0 0Z" fill="#161e13"></path><path d="M0 -389.4C33.9 -341.7 67.8 -293.9 116.3 -280.9C164.9 -267.8 228 -289.4 272.7 -272.7C317.3 -255.9 343.4 -200.8 359.8 -149C376.1 -97.2 382.8 -48.6 389.4 0L0 0Z" fill="#2e4a26"></path><path d="M0 -292C25.4 -256.2 50.9 -220.4 87.3 -210.6C123.7 -200.8 171 -217 204.5 -204.5C238 -191.9 257.5 -150.6 269.8 -111.8C282.1 -72.9 287.1 -36.4 292 0L0 0Z" fill="#477b3a"></path><path d="M0 -194.7C17 -170.8 33.9 -147 58.2 -140.4C82.4 -133.9 114 -144.7 136.3 -136.3C158.6 -128 171.7 -100.4 179.9 -74.5C188.1 -48.6 191.4 -24.3 194.7 0L0 0Z" fill="#61af4f"></path><path d="M0 -97.3C8.5 -85.4 17 -73.5 29.1 -70.2C41.2 -66.9 57 -72.3 68.2 -68.2C79.3 -64 85.8 -50.2 89.9 -37.3C94 -24.3 95.7 -12.1 97.3 0L0 0Z" fill="#6ecb5a"></path></g></svg>